<svg width="122" height="118" fill="none" xmlns="http://www.w3.org/2000/svg"><g opacity=".2" fill="#005FEC"><circle cx="3" cy="3" r="3"/><circle cx="3" cy="67" r="3"/><circle cx="3" cy="35" r="3"/><circle cx="3" cy="99" r="3"/><circle cx="69" cy="3" r="3"/><circle cx="69" cy="67" r="3"/><circle cx="69" cy="35" r="3"/><circle cx="69" cy="99" r="3"/><circle cx="37" cy="3" r="3"/><circle cx="37" cy="67" r="3"/><circle cx="37" cy="35" r="3"/><circle cx="37" cy="99" r="3"/><circle cx="103" cy="3" r="3"/><circle cx="103" cy="67" r="3"/><circle cx="103" cy="35" r="3"/><circle cx="103" cy="99" r="3"/><circle cx="21" cy="3" r="3"/><circle cx="21" cy="67" r="3"/><circle cx="21" cy="35" r="3"/><circle cx="21" cy="99" r="3"/><circle cx="87" cy="3" r="3"/><circle cx="87" cy="67" r="3"/><circle cx="87" cy="35" r="3"/><circle cx="87" cy="99" r="3"/><circle cx="53" cy="3" r="3"/><circle cx="53" cy="67" r="3"/><circle cx="53" cy="35" r="3"/><circle cx="53" cy="99" r="3"/><circle cx="119" cy="3" r="3"/><circle cx="119" cy="67" r="3"/><circle cx="119" cy="35" r="3"/><circle cx="119" cy="99" r="3"/><circle cx="3" cy="19" r="3"/><circle cx="69" cy="19" r="3"/><circle cx="37" cy="19" r="3"/><circle cx="103" cy="19" r="3"/><circle cx="21" cy="19" r="3"/><circle cx="87" cy="19" r="3"/><circle cx="53" cy="19" r="3"/><circle cx="119" cy="19" r="3"/><circle cx="3" cy="83" r="3"/><circle cx="69" cy="83" r="3"/><circle cx="37" cy="83" r="3"/><circle cx="103" cy="83" r="3"/><circle cx="21" cy="83" r="3"/><circle cx="87" cy="83" r="3"/><circle cx="53" cy="83" r="3"/><circle cx="119" cy="83" r="3"/><circle cx="3" cy="51" r="3"/><circle cx="69" cy="51" r="3"/><circle cx="37" cy="51" r="3"/><circle cx="103" cy="51" r="3"/><circle cx="21" cy="51" r="3"/><circle cx="87" cy="51" r="3"/><circle cx="53" cy="51" r="3"/><circle cx="119" cy="51" r="3"/><circle cx="3" cy="115" r="3"/><circle cx="69" cy="115" r="3"/><circle cx="37" cy="115" r="3"/><circle cx="103" cy="115" r="3"/><circle cx="21" cy="115" r="3"/><circle cx="87" cy="115" r="3"/><circle cx="53" cy="115" r="3"/><circle cx="119" cy="115" r="3"/></g></svg>